<svg width="220" height="220" viewBox="0 0 220 220" fill="none" xmlns="http://www.w3.org/2000/svg">
<path opacity="0.2" fill-rule="evenodd" clip-rule="evenodd" d="M55 110H74.8V0H77V110H85.8V0H88V110H96.8V0H99V110H107.8V0H110V110H220V112.2H110V121H220V123.2H110V132H220V134.2H110V143H220V145.2H110V165C110 195.376 85.3757 220 55 220C24.6243 220 0 195.376 0 165C0 134.624 24.6243 110 55 110ZM99 121H107.8V112.2H99V121ZM96.8 121H88V112.2H96.8V121ZM85.8 121H77V112.2H85.8V121ZM74.8 121V112.2H55C25.8394 112.2 2.2 135.839 2.2 165C2.2 194.161 25.8394 217.8 55 217.8C84.1606 217.8 107.8 194.161 107.8 165V145.2H99V165C99 189.301 79.3005 209 55 209C30.6995 209 11 189.301 11 165C11 140.699 30.6995 121 55 121H74.8ZM99 143H107.8V134.2H99V143ZM96.8 145.2V165C96.8 188.086 78.0855 206.8 55 206.8C31.9145 206.8 13.2 188.086 13.2 165C13.2 141.915 31.9145 123.2 55 123.2H74.8V132H55C36.7746 132 22 146.775 22 165C22 183.225 36.7746 198 55 198C73.2254 198 88 183.225 88 165V145.2H96.8ZM85.8 132H77V123.2H85.8V132ZM88 123.2V132H96.8V123.2H88ZM88 134.2V143H96.8V134.2H88ZM85.8 165V145.2H77V165C77 177.15 67.1503 187 55 187C42.8497 187 33 177.15 33 165C33 152.85 42.8497 143 55 143H74.8V134.2H55C37.9896 134.2 24.2 147.99 24.2 165C24.2 182.01 37.9896 195.8 55 195.8C72.0104 195.8 85.8 182.01 85.8 165ZM74.8 165C74.8 175.935 65.9352 184.8 55 184.8C44.0648 184.8 35.2 175.935 35.2 165C35.2 154.065 44.0648 145.2 55 145.2H74.8V165ZM77 143V134.2H85.8V143H77ZM99 132H107.8V123.2H99V132Z" fill="url(#paint0_linear_9_65)"/>
<defs>
<linearGradient id="paint0_linear_9_65" x1="19.8" y1="207.9" x2="220" y2="-4.39998" gradientUnits="userSpaceOnUse">
<stop stop-color="white"/>
<stop offset="1" stop-color="white" stop-opacity="0"/>
</linearGradient>
</defs>
</svg>
