<svg width="268" height="45" viewBox="0 0 268 45" fill="none" xmlns="http://www.w3.org/2000/svg">
<path d="M68.8 27.576H71.872V20.04H68.8V17.616H74.944V21H75.136C75.248 20.568 75.4 20.152 75.592 19.752C75.8 19.336 76.056 18.976 76.36 18.672C76.68 18.352 77.064 18.096 77.512 17.904C77.96 17.712 78.496 17.616 79.12 17.616H80.464V20.496H77.92C76.992 20.496 76.264 20.768 75.736 21.312C75.208 21.856 74.944 22.552 74.944 23.4V27.576H79.24V30H68.8V27.576ZM93.1506 30C92.3986 30 91.8146 29.816 91.3986 29.448C90.9986 29.064 90.7586 28.536 90.6786 27.864H90.5586C90.3346 28.632 89.8946 29.232 89.2386 29.664C88.5826 30.08 87.7746 30.288 86.8146 30.288C85.5666 30.288 84.5746 29.96 83.8386 29.304C83.1026 28.648 82.7346 27.736 82.7346 26.568C82.7346 24.072 84.5666 22.824 88.2306 22.824H90.4146V22.008C90.4146 21.224 90.2226 20.632 89.8386 20.232C89.4546 19.832 88.8306 19.632 87.9666 19.632C87.1826 19.632 86.5506 19.784 86.0706 20.088C85.5906 20.392 85.1826 20.784 84.8466 21.264L83.0946 19.776C83.4786 19.088 84.0946 18.512 84.9426 18.048C85.8066 17.568 86.9186 17.328 88.2786 17.328C89.9106 17.328 91.1826 17.712 92.0946 18.48C93.0226 19.232 93.4866 20.36 93.4866 21.864V27.696H94.9506V30H93.1506ZM87.8466 28.176C88.5826 28.176 89.1906 28.008 89.6706 27.672C90.1666 27.32 90.4146 26.848 90.4146 26.256V24.6H88.3026C86.6226 24.6 85.7826 25.128 85.7826 26.184V26.664C85.7826 27.16 85.9666 27.536 86.3346 27.792C86.7026 28.048 87.2066 28.176 87.8466 28.176ZM97.5813 27.576H101.373V20.04H97.3413V17.616H101.373V15.6C101.373 15.104 101.437 14.656 101.565 14.256C101.709 13.84 101.925 13.488 102.213 13.2C102.501 12.896 102.861 12.664 103.293 12.504C103.741 12.328 104.261 12.24 104.853 12.24H109.029V14.664H104.445V17.616H109.029V20.04H104.445V27.576H108.477V30H97.5813V27.576ZM121.932 30C121.18 30 120.596 29.816 120.18 29.448C119.78 29.064 119.54 28.536 119.46 27.864H119.34C119.116 28.632 118.676 29.232 118.02 29.664C117.364 30.08 116.556 30.288 115.596 30.288C114.348 30.288 113.356 29.96 112.62 29.304C111.884 28.648 111.516 27.736 111.516 26.568C111.516 24.072 113.348 22.824 117.012 22.824H119.196V22.008C119.196 21.224 119.004 20.632 118.62 20.232C118.236 19.832 117.612 19.632 116.748 19.632C115.964 19.632 115.332 19.784 114.852 20.088C114.372 20.392 113.964 20.784 113.628 21.264L111.876 19.776C112.26 19.088 112.876 18.512 113.724 18.048C114.588 17.568 115.7 17.328 117.06 17.328C118.692 17.328 119.964 17.712 120.876 18.48C121.804 19.232 122.268 20.36 122.268 21.864V27.696H123.732V30H121.932ZM116.628 28.176C117.364 28.176 117.972 28.008 118.452 27.672C118.948 27.32 119.196 26.848 119.196 26.256V24.6H117.084C115.404 24.6 114.564 25.128 114.564 26.184V26.664C114.564 27.16 114.748 27.536 115.116 27.792C115.484 28.048 115.988 28.176 116.628 28.176ZM132.051 30.288C131.059 30.288 130.179 30.136 129.411 29.832C128.643 29.528 127.995 29.096 127.467 28.536C126.955 27.976 126.563 27.304 126.291 26.52C126.019 25.72 125.883 24.824 125.883 23.832C125.883 22.824 126.019 21.92 126.291 21.12C126.579 20.32 126.979 19.64 127.491 19.08C128.003 18.52 128.619 18.088 129.339 17.784C130.075 17.48 130.899 17.328 131.811 17.328C132.707 17.328 133.515 17.48 134.235 17.784C134.955 18.072 135.563 18.488 136.059 19.032C136.571 19.576 136.963 20.232 137.234 21C137.507 21.768 137.643 22.616 137.643 23.544V24.552H128.955V24.864C128.955 25.76 129.235 26.488 129.795 27.048C130.355 27.592 131.139 27.864 132.147 27.864C132.915 27.864 133.571 27.712 134.115 27.408C134.675 27.088 135.139 26.672 135.507 26.16L137.259 27.912C136.811 28.568 136.155 29.128 135.291 29.592C134.443 30.056 133.363 30.288 132.051 30.288ZM131.835 19.584C130.971 19.584 130.275 19.856 129.747 20.4C129.219 20.944 128.955 21.664 128.955 22.56V22.728H134.571V22.512C134.571 21.616 134.323 20.904 133.827 20.376C133.347 19.848 132.683 19.584 131.835 19.584ZM140.681 27.576H144.617V14.664H140.681V12.24H147.689V27.576H151.649V30H140.681V27.576ZM158.696 30L154.256 17.616H157.472L159.128 22.872L160.52 27.432H160.688L162.08 22.872L163.736 17.616H166.832L162.392 30H158.696ZM175.702 15.696C174.982 15.696 174.47 15.544 174.166 15.24C173.878 14.936 173.734 14.568 173.734 14.136V13.56C173.734 13.128 173.878 12.76 174.166 12.456C174.47 12.152 174.982 12 175.702 12C176.422 12 176.926 12.152 177.214 12.456C177.518 12.76 177.67 13.128 177.67 13.56V14.136C177.67 14.568 177.518 14.936 177.214 15.24C176.926 15.544 176.422 15.696 175.702 15.696ZM170.086 27.576H174.166V20.04H170.086V17.616H177.238V27.576H181.03V30H170.086V27.576ZM189.613 30.288C188.621 30.288 187.741 30.136 186.973 29.832C186.205 29.528 185.557 29.096 185.029 28.536C184.517 27.976 184.125 27.304 183.853 26.52C183.581 25.72 183.445 24.824 183.445 23.832C183.445 22.824 183.581 21.92 183.853 21.12C184.141 20.32 184.541 19.64 185.053 19.08C185.565 18.52 186.181 18.088 186.901 17.784C187.637 17.48 188.461 17.328 189.373 17.328C190.269 17.328 191.077 17.48 191.797 17.784C192.517 18.072 193.125 18.488 193.621 19.032C194.133 19.576 194.525 20.232 194.797 21C195.069 21.768 195.205 22.616 195.205 23.544V24.552H186.517V24.864C186.517 25.76 186.797 26.488 187.357 27.048C187.917 27.592 188.701 27.864 189.709 27.864C190.477 27.864 191.133 27.712 191.677 27.408C192.237 27.088 192.701 26.672 193.069 26.16L194.821 27.912C194.373 28.568 193.717 29.128 192.853 29.592C192.005 30.056 190.925 30.288 189.613 30.288ZM189.397 19.584C188.533 19.584 187.837 19.856 187.309 20.4C186.781 20.944 186.517 21.664 186.517 22.56V22.728H192.133V22.512C192.133 21.616 191.885 20.904 191.389 20.376C190.909 19.848 190.245 19.584 189.397 19.584ZM204.484 15.696C203.764 15.696 203.252 15.544 202.948 15.24C202.66 14.936 202.516 14.568 202.516 14.136V13.56C202.516 13.128 202.66 12.76 202.948 12.456C203.252 12.152 203.764 12 204.484 12C205.204 12 205.708 12.152 205.996 12.456C206.3 12.76 206.452 13.128 206.452 13.56V14.136C206.452 14.568 206.3 14.936 205.996 15.24C205.708 15.544 205.204 15.696 204.484 15.696ZM198.868 27.576H202.948V20.04H198.868V17.616H206.02V27.576H209.812V30H198.868V27.576ZM212.706 27.576H215.778V20.04H212.706V17.616H218.85V21H219.042C219.154 20.568 219.306 20.152 219.498 19.752C219.706 19.336 219.962 18.976 220.266 18.672C220.586 18.352 220.97 18.096 221.418 17.904C221.866 17.712 222.402 17.616 223.026 17.616H224.37V20.496H221.826C220.898 20.496 220.17 20.768 219.642 21.312C219.114 21.856 218.85 22.552 218.85 23.4V27.576H223.146V30H212.706V27.576ZM237.057 30C236.305 30 235.721 29.816 235.305 29.448C234.905 29.064 234.665 28.536 234.585 27.864H234.465C234.241 28.632 233.801 29.232 233.145 29.664C232.489 30.08 231.681 30.288 230.721 30.288C229.473 30.288 228.481 29.96 227.745 29.304C227.009 28.648 226.641 27.736 226.641 26.568C226.641 24.072 228.473 22.824 232.137 22.824H234.321V22.008C234.321 21.224 234.129 20.632 233.745 20.232C233.361 19.832 232.737 19.632 231.873 19.632C231.089 19.632 230.457 19.784 229.977 20.088C229.497 20.392 229.089 20.784 228.753 21.264L227.001 19.776C227.385 19.088 228.001 18.512 228.849 18.048C229.713 17.568 230.825 17.328 232.185 17.328C233.817 17.328 235.089 17.712 236.001 18.48C236.929 19.232 237.393 20.36 237.393 21.864V27.696H238.857V30H237.057ZM231.753 28.176C232.489 28.176 233.097 28.008 233.577 27.672C234.073 27.32 234.321 26.848 234.321 26.256V24.6H232.209C230.529 24.6 229.689 25.128 229.689 26.184V26.664C229.689 27.16 229.873 27.536 230.241 27.792C230.609 28.048 231.113 28.176 231.753 28.176ZM246.84 30.288C245.48 30.288 244.304 30.08 243.312 29.664C242.32 29.232 241.544 28.656 240.984 27.936L242.784 26.304C243.296 26.864 243.88 27.296 244.536 27.6C245.208 27.904 245.984 28.056 246.864 28.056C247.632 28.056 248.248 27.928 248.712 27.672C249.176 27.416 249.408 27.024 249.408 26.496C249.408 26.048 249.248 25.744 248.928 25.584C248.624 25.424 248.216 25.304 247.704 25.224L245.712 24.912C245.2 24.832 244.696 24.72 244.2 24.576C243.72 24.416 243.288 24.2 242.904 23.928C242.536 23.656 242.24 23.312 242.016 22.896C241.792 22.464 241.68 21.944 241.68 21.336C241.68 20.04 242.16 19.048 243.12 18.36C244.096 17.672 245.432 17.328 247.128 17.328C248.328 17.328 249.344 17.496 250.176 17.832C251.024 18.168 251.72 18.64 252.264 19.248L250.656 21.024C250.304 20.64 249.832 20.304 249.24 20.016C248.664 19.712 247.928 19.56 247.032 19.56C245.464 19.56 244.68 20.048 244.68 21.024C244.68 21.472 244.84 21.784 245.16 21.96C245.48 22.12 245.896 22.24 246.408 22.32L248.376 22.632C248.904 22.712 249.408 22.832 249.888 22.992C250.384 23.136 250.816 23.344 251.184 23.616C251.568 23.888 251.872 24.232 252.096 24.648C252.32 25.064 252.432 25.576 252.432 26.184C252.432 27.464 251.936 28.472 250.944 29.208C249.968 29.928 248.6 30.288 246.84 30.288Z" fill="white"/>
<path fill-rule="evenodd" clip-rule="evenodd" d="M41.9048 2.14286H2.09524V42.8571H41.9048V2.14286ZM0 0V45H44V0H0Z" fill="white"/>
<path d="M16.8121 14.2441H20.4147V30.4558H16.8121V14.2441Z" fill="white"/>
<path d="M24.918 21.4494H28.5206V30.4558H24.918V21.4494Z" fill="white"/>
<path d="M21.9158 17.8468L21.9158 14.2442L27.9201 14.2442L27.9201 17.8468L21.9158 17.8468Z" fill="white"/>
</svg>
