<svg width="72" height="72" viewBox="0 0 72 72" fill="none" xmlns="http://www.w3.org/2000/svg">
<path d="M32.5571 42.2713L33.9713 40.8571L31.1429 38.0286L29.7286 39.4428L32.5571 42.2713ZM43.7143 50.5718V52.5718H47.7143V50.5718H43.7143ZM47.7143 45.7144V43.7144H43.7143V45.7144H47.7143ZM43.7143 6.85735V8.85735H47.7143V6.85735H43.7143ZM47.7143 2V0H43.7143V2H47.7143ZM21.4286 24.2862H19.4286V28.2862H21.4286V24.2862ZM26.2857 28.2862H28.2857V24.2862H26.2857V28.2862ZM65.1429 24.2862H63.1429V28.2862H65.1429V24.2862ZM70 28.2862H72V24.2862H70V28.2862ZM58.8715 10.3005L57.4573 11.7148L60.2858 14.5431L61.7 13.1289L58.8715 10.3005ZM66.5571 8.27154L67.9713 6.85729L65.1428 4.02893L63.7286 5.44317L66.5571 8.27154ZM27.7 5.44317L26.2858 4.02893L23.4573 6.85729L24.8715 8.27154L27.7 5.44317ZM29.7286 13.1289L31.1428 14.5431L33.9713 11.7148L32.5571 10.3005L29.7286 13.1289ZM61.7 39.4429L60.2858 38.0286L57.4573 40.857L58.8715 42.2712L61.7 39.4429ZM63.7286 47.1286L65.1428 48.5428L67.9713 45.7145L66.5571 44.3002L63.7286 47.1286ZM3.41422 71.4142L32.5571 42.2713L29.7286 39.4428L0.585784 68.5858L3.41422 71.4142ZM47.7143 50.5718V45.7144H43.7143V50.5718H47.7143ZM47.7143 6.85735V2H43.7143V6.85735H47.7143ZM21.4286 28.2862H26.2857V24.2862H21.4286V28.2862ZM65.1429 28.2862H70V24.2862H65.1429V28.2862ZM61.7 13.1289L66.5571 8.27154L63.7286 5.44317L58.8715 10.3005L61.7 13.1289ZM24.8715 8.27154L29.7286 13.1289L32.5571 10.3005L27.7 5.44317L24.8715 8.27154ZM58.8715 42.2712L63.7286 47.1286L66.5571 44.3002L61.7 39.4429L58.8715 42.2712Z" fill="#F08D2B"/>
</svg>
