<svg width="78" height="78" viewBox="0 0 78 78" fill="none" xmlns="http://www.w3.org/2000/svg">
<path d="M20.5 76H57.5M39 76V49.5714M39 49.5714C50.6769 49.5714 60.1429 40.1054 60.1429 28.4286V7.28571C60.1429 4.36649 57.7764 2 54.8571 2H23.1429C20.2236 2 17.8571 4.36649 17.8571 7.28571V28.4286C17.8571 40.1054 27.3231 49.5714 39 49.5714ZM17.8571 12.5714H12.5714C6.73299 12.5714 2 17.3044 2 23.1429C2 28.9813 6.73299 33.7143 12.5714 33.7143H17.8571M60.1429 12.5714H65.4286C71.267 12.5714 76 17.3044 76 23.1429C76 28.9813 71.267 33.7143 65.4286 33.7143H60.1429" stroke="#FF8D23" stroke-width="4"/>
</svg>
