<svg width="81" height="81" viewBox="0 0 81 81" fill="none" xmlns="http://www.w3.org/2000/svg">
<path d="M2 40.5C2 61.763 19.237 79 40.5 79C61.763 79 79 61.763 79 40.5C79 19.237 61.763 2 40.5 2C19.237 2 2 19.237 2 40.5Z" stroke="#F08D2B" stroke-width="4"/>
<path d="M18.5 40.5C18.5 52.6503 28.3497 62.5 40.5 62.5C52.6503 62.5 62.5 52.6503 62.5 40.5C62.5 28.3497 52.6503 18.5 40.5 18.5C28.3497 18.5 18.5 28.3497 18.5 40.5Z" stroke="#F08D2B" stroke-width="4"/>
<path d="M35 40.5C35 43.5376 37.4624 46 40.5 46C43.5376 46 46 43.5376 46 40.5C46 37.4624 43.5376 35 40.5 35C37.4624 35 35 37.4624 35 40.5Z" stroke="#F08D2B" stroke-width="4"/>
</svg>
