<svg width="133" height="633" viewBox="0 0 133 633" fill="none" xmlns="http://www.w3.org/2000/svg">
<path d="M1.79995 57.0622C55.6282 59.9204 113.034 84.4984 128.017 127.827C142.999 171.02 115.288 232.963 111.331 292.685C107.238 352.542 126.631 410.041 113.403 456.521C100.041 503.001 54.0586 538.461 4.0349 571.751C-45.8539 605.041 -99.7849 636.432 -150.909 631.694C-202.033 627.091 -250.486 586.494 -303.418 554.648C-356.215 522.803 -413.491 499.708 -456.542 457.509C-499.593 415.445 -528.419 354.142 -530.795 291.569C-533.171 228.997 -508.962 165.02 -474.25 108.357C-439.403 51.5594 -393.918 2.07489 -338.458 0.623098C-282.862 -0.963133 -217.426 45.483 -159.582 59.2752C-101.874 73.067 -51.8934 54.2045 1.79995 57.0622Z" fill="#27B2C7"/>
</svg>
