<svg width="183" height="379" viewBox="0 0 183 379" fill="none" xmlns="http://www.w3.org/2000/svg">
<path d="M3.74736 351.705C-19.3348 372.585 -52.768 386.089 -76.6103 374.586C-100.398 363.139 -114.484 326.576 -137.33 300.645C-160.176 274.604 -191.617 259.139 -205.267 234.802C-218.862 210.409 -214.665 177.144 -207.935 143.108C-201.26 109.126 -192.161 74.2622 -169.41 55.2548C-146.714 36.1923 -110.366 32.8758 -75.7774 24.1629C-41.2444 15.5051 -8.47183 1.45075 26.3338 0.998559C61.0845 0.491309 97.9232 13.6412 124.515 38.1394C151.106 62.6376 167.451 98.5941 176.525 135.875C185.6 173.266 187.349 212.036 165.368 235.339C143.386 258.752 97.7286 266.642 68.5344 284.716C39.3953 302.734 26.7744 330.88 3.74736 351.705Z" fill="#F6C867"/>
</svg>
