<svg width="335" height="680" viewBox="0 0 335 680" fill="none" xmlns="http://www.w3.org/2000/svg">
<path d="M604.772 219.392C651.065 247.009 690.4 295.509 683.461 340.827C676.586 386.025 623.198 427.914 591.863 478.908C560.345 529.959 550.703 589.87 517.337 624.828C483.852 659.723 426.643 669.665 366.869 675.803C307.214 682.006 244.868 684.643 201.845 656.624C158.758 628.724 134.81 570.223 102.821 517.377C70.9517 464.595 31.0407 417.468 12.6192 360.068C-5.86551 302.786 -2.79754 235.113 24.2635 178.645C51.3245 122.177 102.561 76.8571 159.681 42.9026C216.984 8.89212 280.29 -13.6902 330.035 10.8738C379.962 35.3819 416.21 106.973 460.958 146.135C505.588 185.233 558.599 191.839 604.772 219.392Z" fill="#F08D2B"/>
</svg>
