<svg xmlns="http://www.w3.org/2000/svg" xmlns:xlink="http://www.w3.org/1999/xlink" viewBox="0 0 1600 1600"><defs><style>.cls-1{fill:#414042;}.cls-2{fill:#f7941d;}.cls-3{fill:#fcb49d;}.cls-4{fill:#766c66;opacity:0.3;}.cls-5{fill:#2b2b2b;}.cls-6{fill:#191919;}.cls-7{fill:url(#Fade_to_Black_1);}.cls-8{fill:#ffbe71;}.cls-10,.cls-11,.cls-12,.cls-9{fill:#f2f2f2;}.cls-10{font-size:14.18px;font-family:OpenSans-Semibold, Open Sans;}.cls-10,.cls-11{font-weight:700;}.cls-11{font-size:15.95px;font-family:OpenSans-Bold, Open Sans;}.cls-12{font-size:10.64px;font-family:OpenSans, Open Sans;}.cls-13{letter-spacing:-0.02em;}.cls-14{letter-spacing:-0.02em;}.cls-15{letter-spacing:0.15em;}.cls-16{letter-spacing:0.15em;}</style><linearGradient id="Fade_to_Black_1" x1="800" y1="1266.31" x2="800" y2="1703.6" gradientUnits="userSpaceOnUse"><stop offset="0" stop-color="#231f20"/><stop offset="0.06" stop-color="#231f20" stop-opacity="0.86"/><stop offset="0.33" stop-color="#231f20" stop-opacity="0.38"/><stop offset="0.63" stop-color="#231f20" stop-opacity="0.09"/><stop offset="1" stop-color="#231f20" stop-opacity="0"/></linearGradient></defs><title>Untitled-1</title><g id="BACKGROUND"><rect class="cls-1" width="1600" height="1600"/></g><g id="OBJECT"><rect class="cls-2" x="387" y="223.91" width="826" height="1168.2"/><polygon class="cls-3" points="387 223.91 387 228.33 1208.58 228.33 1208.58 1392.11 1213 1392.11 1213 223.91 387 223.91"/><rect class="cls-4" x="387" y="223.91" width="27.54" height="1168.2"/><rect class="cls-5" x="544.94" y="563.48" width="510.11" height="489.07" transform="translate(1608.01 8.01) rotate(90)"/><rect class="cls-6" x="568.84" y="588.44" width="462.32" height="439.16" transform="translate(1608.01 8.01) rotate(90)"/><rect class="cls-7" x="387" y="1392.11" width="826" height="207.89"/><polygon class="cls-8" points="547.51 787.21 555.47 786.05 555.47 654.7 511.84 661.08 511.84 684.26 547.51 679.05 547.51 787.21"/><polygon class="cls-8" points="1056.9 581.37 1044.54 598.69 1044.54 638.07 1087.8 576.85 1056.9 581.37"/><polygon class="cls-8" points="1088.16 708.14 1044.54 645.35 1044.54 695.22 1056.54 712.77 1088.16 708.14"/><path class="cls-8" d="M539.87,889.49q-6.24-7.4-6.24-23.84t6.3-25.7a25.19,25.19,0,0,1,15.52-10.46V812.1q-20.28,3.83-31.52,17.45-12.11,14.68-12.11,39.16t12.07,35.79q11.24,10.53,31.55,8.4V895.39h0Q545.32,896,539.87,889.49Z"/><polygon class="cls-8" points="1044.54 840.1 1088.16 833.72 1088.16 816.55 1052.48 821.77 1052.48 796.49 1085.68 791.63 1085.68 774.6 1052.48 779.45 1052.48 757.92 1088.16 752.7 1088.16 735.67 1044.54 742.05 1044.54 840.1"/><polygon class="cls-8" points="511.84 963.81 537.95 959.99 537.95 1039.17 555.47 1036.61 555.47 940.46 511.84 946.84 511.84 963.81"/><polygon class="cls-8" points="1085.86 862.89 1063.89 866.1 1043.57 903.67 1044.54 901.89 1044.54 932 1064.88 962.11 1088.16 958.71 1055.67 914.99 1085.86 862.89"/><polygon class="cls-9" points="575.36 674.97 611.02 669.76 611.02 646.58 555.47 654.7 555.47 786.05 575.36 783.14 575.36 674.97"/><polygon class="cls-9" points="659.09 714.21 711.1 706.6 711.1 763.29 738.86 759.23 738.86 627.88 711.1 631.94 711.1 683.42 659.09 691.03 659.09 639.55 631.24 643.62 631.24 774.97 659.09 770.89 659.09 714.21"/><polygon class="cls-9" points="772.01 754.38 799.87 750.31 799.87 618.96 772.01 623.03 772.01 754.38"/><path class="cls-9" d="M857.81,680q0-11.23-1.71-37.3l.81-.12,57.14,91,35.4-5.18V597.09l-25.07,3.67v62.17q0,10.6,1.35,36l-.63.09-57-90-35.13,5.14V745.47l24.89-3.64Z"/><polygon class="cls-9" points="1044.54 598.69 1021.32 631.23 1010.36 648.28 1010.36 588.18 982.51 592.25 982.51 723.6 1010.36 719.52 1010.36 672.63 1022.13 662.46 1044.54 695.22 1044.54 645.35 1041.98 641.68 1044.54 638.07 1044.54 598.69"/><path class="cls-9" d="M593.23,819.52q-12-11.26-34.57-8c-1.08.16-2.14.34-3.19.54v17.39c1-.25,2.09-.46,3.19-.62q24.75-3.62,24.75,29.51t-24.88,36.7q-1.58.23-3.05.31V912.9c1-.11,2-.23,3.05-.38q22.54-3.3,34.61-18.14t12.07-39.19Q605.2,830.78,593.23,819.52Z"/><path class="cls-9" d="M705.33,791.65l-20.72,3v59.89q0,11.4-4.59,17.41t-14.79,7.49q-10.53,1.54-15.09-3.09t-4.56-16v-60l-20.72,3V866.6q0,16.84,10.46,25t29.38,5.4a56.12,56.12,0,0,0,21.73-7.54,39.17,39.17,0,0,0,14.05-14.6,40.5,40.5,0,0,0,4.86-19.76Z"/><polygon class="cls-9" points="719.75 806.85 746.38 802.96 746.38 883.71 767.17 880.66 767.17 799.91 793.8 796.02 793.8 778.72 719.75 789.54 719.75 806.85"/><path class="cls-9" d="M830.62,872.73q17-2.49,26.59-11.53a29.51,29.51,0,0,0,9.56-22.32q0-9.59-5.1-15.45T842.82,813q-10.4-3.44-13.18-4.95a11.28,11.28,0,0,1-4.06-3.36,8,8,0,0,1-1.27-4.61,10.52,10.52,0,0,1,3.15-7.64q3.15-3.21,9.05-4.07a40.86,40.86,0,0,1,10.09-.2,88,88,0,0,1,13,2.6l6.71-17.15a89.75,89.75,0,0,0-14.52-3,56.29,56.29,0,0,0-14.59.32q-15.56,2.28-24.38,11A29.37,29.37,0,0,0,804,803.72a23.52,23.52,0,0,0,2.68,11.68,24.6,24.6,0,0,0,7.18,8q4.49,3.23,13.48,6.14A103.36,103.36,0,0,1,840,834.33a14.56,14.56,0,0,1,4.73,3.63,7.59,7.59,0,0,1,1.61,4.9,10.44,10.44,0,0,1-3.65,8.31q-3.66,3.15-10.5,4.15a48.3,48.3,0,0,1-12.58,0,101.74,101.74,0,0,1-16.8-3.78v19.32Q814.92,875,830.62,872.73Z"/><polygon class="cls-9" points="905.33 762.4 884.54 765.45 884.54 863.5 905.33 860.46 905.33 762.4"/><path class="cls-9" d="M998.09,761.52q-13.28-10.73-37.29-7.22L930,758.8v98.05l27.77-4.06q26-3.81,39.8-18.7t13.78-39.1Q1011.37,772.25,998.09,761.52Zm-38.36,73.82-8.92,1.3V772.79l11.07-1.62q27.9-4.08,27.9,27.51Q989.77,830.94,959.72,835.34Z"/><polygon class="cls-9" points="1031.69 841.98 1044.54 840.1 1044.54 742.05 1031.69 743.93 1031.69 841.98"/><polygon class="cls-9" points="555.47 1036.61 558.34 1036.19 558.34 957.01 584.45 953.19 584.45 936.22 555.47 940.46 555.47 1036.61"/><polygon class="cls-9" points="657.71 963.19 619.63 968.76 619.63 931.08 599.25 934.06 599.25 1030.21 619.63 1027.23 619.63 985.73 657.71 980.16 657.71 1021.66 678.03 1018.69 678.03 922.53 657.71 925.51 657.71 963.19"/><polygon class="cls-9" points="702.3 1015.14 757.68 1007.04 757.68 990.2 722.69 995.32 722.69 970.52 755.25 965.76 755.25 949.06 722.69 953.82 722.69 932.71 757.68 927.59 757.68 910.89 702.3 918.99 702.3 1015.14"/><path class="cls-9" d="M866.79,940.7V940a19.64,19.64,0,0,0,10.75-8.22,26.1,26.1,0,0,0,4-14.73q0-12.69-9.24-17.16t-29.69-1.48l-29.92,4.38V999l36-5.26q16.31-2.39,25.81-11.14a28.55,28.55,0,0,0,9.5-21.91q0-9.27-4-14.27T866.79,940.7Zm-33.67-24.14L843.83,915q8.75-1.28,12.79.53t4,7.33q0,5.92-3.72,9t-12,4.32l-11.84,1.73Zm25.71,55.63q-4,3.81-12.43,5l-13.28,1.94V954.11l12.63-1.85q17.1-2.5,17.1,9.47Q862.84,968.38,858.83,972.19Z"/><path class="cls-9" d="M944.85,882q-22.16,3.24-34,17.64T898.95,938q0,24,11.84,35.1T944.72,981q22.1-3.23,33.94-17.79t11.84-38.43q0-23.94-11.74-35T944.85,882Zm-.13,81.9q-12.17,1.78-18.28-5.48T920.32,935q0-16.11,6.18-25.2T944.85,899q24.27-3.55,24.27,28.94T944.72,963.9Z"/><polygon class="cls-9" points="1022.85 872.11 1000.36 875.4 1030.22 917.59 998.32 971.85 1020.16 968.65 1042.52 929.01 1044.54 932 1044.54 901.89 1043.57 903.67 1022.85 872.11"/></g><g id="TEXT"><text class="cls-10" transform="translate(724.89 1325.29)">LOREM IPSUM DOLOR</text><text class="cls-11" transform="translate(555.46 391.37)">LOREM IPSUM DOLOR</text><text class="cls-12" transform="translate(555.37 437.04)">lorem<tspan class="cls-13" x="29.32" y="0"> </tspan><tspan x="31.82" y="0">ipsum</tspan><tspan class="cls-13" x="62.52" y="0"> </tspan><tspan x="65.02" y="0">dolor</tspan><tspan class="cls-13" x="91.42" y="0"> </tspan><tspan x="93.92" y="0">sit</tspan><tspan class="cls-14" x="105.44" y="0"> </tspan><tspan x="107.94" y="0">amet,</tspan><tspan class="cls-13" x="136.07" y="0"> </tspan><tspan x="138.57" y="0">consectetuer</tspan><tspan class="cls-13" x="203.01" y="0"> </tspan><tspan x="205.51" y="0">adip</tspan><tspan x="227.15" y="0">-</tspan><tspan x="0" y="20.39">iscing</tspan><tspan class="cls-15" x="27.87" y="20.39"> </tspan><tspan x="32.19" y="20.39">elit,</tspan><tspan class="cls-16" x="49.9" y="20.39"> </tspan><tspan x="54.21" y="20.39">sed</tspan><tspan class="cls-15" x="71.77" y="20.39"> </tspan><tspan x="76.09" y="20.39">diam</tspan><tspan class="cls-16" x="101.11" y="20.39"> </tspan><tspan x="105.42" y="20.39">nonummy</tspan><tspan class="cls-15" x="156.58" y="20.39"> </tspan><tspan x="160.89" y="20.39">nibh</tspan><tspan class="cls-16" x="183.16" y="20.39"> </tspan><tspan x="187.47" y="20.39">euismod </tspan><tspan x="0" y="40.77">tincidunt ut laoreet dolore magna.</tspan></text></g></svg>