<?xml version="1.0" standalone="no"?>
<!DOCTYPE svg PUBLIC "-//W3C//DTD SVG 20010904//EN"
 "http://www.w3.org/TR/2001/REC-SVG-20010904/DTD/svg10.dtd">
<svg version="1.0" xmlns="http://www.w3.org/2000/svg"
 width="700.000000pt" height="700.000000pt" viewBox="0 0 700.000000 700.000000"
 preserveAspectRatio="xMidYMid meet">
<metadata>
Created by potrace 1.14, written by Peter Selinger 2001-2017
</metadata>
<g transform="translate(0.000000,700.000000) scale(0.100000,-0.100000)"
fill="#000000" stroke="none">
<path d="M0 3500 l0 -3500 3423 2 3422 3 0 3495 0 3495 -3423 3 -3422 2 0
-3500z m6517 -1 l1 -3165 -3096 0 -3097 0 1 3160 c1 1739 2 3164 3 3167 1 3
1393 5 3094 5 l3092 -1 2 -3166z"/>
<path d="M2617 4775 c-2 -5 -3 -572 -3 -1260 l1 -1250 278 -2 c204 -1 277 2
278 10 1 7 2 573 3 1260 1 829 -2 1247 -9 1248 -5 1 -130 2 -277 3 -174 1
-269 -2 -271 -9z"/>
<path d="M3420 4782 c-6 -2 -10 -98 -10 -281 l0 -277 462 1 462 0 5 25 c9 35
5 519 -3 527 -7 7 -895 12 -916 5z"/>
<path d="M3882 3655 c-3 -5 -6 -319 -6 -698 -1 -680 -1 -688 19 -692 11 -2
137 -3 280 -2 l260 2 0 693 c1 461 -3 695 -9 700 -17 10 -537 8 -544 -3z"/>
</g>
</svg>
