<svg width="182" height="160" viewBox="0 0 182 160" fill="none" xmlns="http://www.w3.org/2000/svg">
<path fill-rule="evenodd" clip-rule="evenodd" d="M75.3103 0.000275279H76.8485C76.8681 -9.22414e-05 76.8877 -9.12777e-05 76.9072 0.000275279H106.69L182 134.902L169.448 160H14.1207L0 134.902L75.3103 0.000275279ZM135.38 108.235L76.562 4.19544L66.3814 22.4316L80.4009 47.7515L80.5488 47.8358L80.4974 47.9259L113.89 108.235H135.38ZM139.421 109.008C139.559 109.241 139.638 109.513 139.638 109.804C139.638 110.67 138.935 111.373 138.069 111.373H70.6929L58.3123 133.333H177.531L104.847 3.13752H79.5684L139.421 109.008ZM72.4615 108.235H110.304L91.5531 74.3707L72.4615 108.235ZM45.0474 156.863L56.5437 136.471H177.707L167.509 156.863H45.0474ZM89.7806 71.1695C89.7264 71.2366 89.677 71.3091 89.6332 71.3868L41.4454 156.863H18.3899L78.6779 51.1174L89.7806 71.1695ZM76.8983 47.9034L15.3709 155.823L3.59694 134.896L64.5807 25.6571L76.8983 47.9034Z" fill="url(#paint0_radial_33_4)"/>
<defs>
<radialGradient id="paint0_radial_33_4" cx="0" cy="0" r="1" gradientUnits="userSpaceOnUse" gradientTransform="translate(91 81.5685) rotate(66.7009) scale(122.969 139.867)">
<stop stop-color="white"/>
<stop offset="1" stop-color="white" stop-opacity="0"/>
</radialGradient>
</defs>
</svg>
