<svg width="202" height="202" viewBox="0 0 202 202" fill="none" xmlns="http://www.w3.org/2000/svg">
<path fill-rule="evenodd" clip-rule="evenodd" d="M0 0H202V202H0V0ZM26.2338 24.25L4.78938 2.80556H47.6781L26.2338 24.25ZM28.2176 26.2338L49.662 4.78939V47.6782L28.2176 26.2338ZM26.2338 28.2176L47.6781 49.6621H4.78938L26.2338 28.2176ZM24.2499 26.2338L2.80556 47.6782V4.78939L24.2499 26.2338ZM76.0779 24.25L54.6335 2.80556H97.5223L76.0779 24.25ZM78.0618 26.2338L99.5061 4.78939V47.6782L78.0618 26.2338ZM76.0779 28.2176L97.5223 49.6621H54.6335L76.0779 28.2176ZM74.0941 26.2338L52.6497 47.6782V4.78939L74.0941 26.2338ZM104.478 2.80556L125.922 24.25L147.366 2.80556H104.478ZM149.35 4.78939L127.906 26.2338L149.35 47.6782V4.78939ZM147.366 49.6621L125.922 28.2176L104.478 49.6621H147.366ZM102.494 47.6782L123.938 26.2338L102.494 4.78939V47.6782ZM175.766 24.25L154.322 2.80556H197.211L175.766 24.25ZM177.75 26.2338L199.194 4.78939V47.6782L177.75 26.2338ZM175.766 28.2176L197.211 49.6621H154.322L175.766 28.2176ZM173.782 26.2338L152.338 47.6782V4.78939L173.782 26.2338ZM4.78938 52.6501L26.2338 74.0946L47.6781 52.6501H4.78938ZM49.662 54.634L28.2176 76.0784L49.662 97.5228V54.634ZM47.6781 99.5066L26.2338 78.0622L4.78938 99.5066H47.6781ZM2.80556 97.5228L24.2499 76.0784L2.80556 54.634V97.5228ZM76.0779 74.0946L54.6335 52.6501H97.5223L76.0779 74.0946ZM78.0618 76.0784L99.5061 54.634V97.5228L78.0618 76.0784ZM76.0779 78.0622L97.5223 99.5066H54.6335L76.0779 78.0622ZM74.0941 76.0784L52.6497 97.5228V54.634L74.0941 76.0784ZM104.478 52.6501L125.922 74.0946L147.366 52.6501H104.478ZM149.35 54.634L127.906 76.0784L149.35 97.5228V54.634ZM147.366 99.5066L125.922 78.0622L104.478 99.5066H147.366ZM102.494 97.5228L123.938 76.0784L102.494 54.634V97.5228ZM175.766 74.0946L154.322 52.6501H197.211L175.766 74.0946ZM177.75 76.0784L199.194 54.634V97.5228L177.75 76.0784ZM175.766 78.0622L197.211 99.5066H154.322L175.766 78.0622ZM173.782 76.0784L152.338 97.5228V54.634L173.782 76.0784ZM4.78938 102.495L26.2338 123.939L47.6781 102.495H4.78938ZM49.662 104.479L28.2176 125.923L49.662 147.367V104.479ZM47.6781 149.351L26.2338 127.907L4.78938 149.351H47.6781ZM2.80556 147.367L24.2499 125.923L2.80556 104.479V147.367ZM76.0779 123.939L54.6335 102.495H97.5223L76.0779 123.939ZM78.0618 125.923L99.5061 104.479V147.367L78.0618 125.923ZM76.0779 127.907L97.5223 149.351H54.6335L76.0779 127.907ZM74.0941 125.923L52.6497 147.367V104.479L74.0941 125.923ZM104.478 102.495L125.922 123.939L147.366 102.495H104.478ZM149.35 104.479L127.906 125.923L149.35 147.367V104.479ZM147.366 149.351L125.922 127.907L104.478 149.351H147.366ZM102.494 147.367L123.938 125.923L102.494 104.479V147.367ZM175.766 123.939L154.322 102.495H197.211L175.766 123.939ZM177.75 125.923L199.194 104.479V147.367L177.75 125.923ZM175.766 127.907L197.211 149.351H154.322L175.766 127.907ZM173.782 125.923L152.338 147.367V104.479L173.782 125.923ZM4.78938 152.338L26.2338 173.782L47.6781 152.338H4.78938ZM49.662 154.322L28.2176 175.766L49.662 197.211V154.322ZM47.6781 199.194L26.2338 177.75L4.78938 199.194H47.6781ZM2.80556 197.211L24.2499 175.766L2.80556 154.322V197.211ZM76.0779 173.782L54.6335 152.338H97.5223L76.0779 173.782ZM78.0618 175.766L99.5061 154.322V197.211L78.0618 175.766ZM76.0779 177.75L97.5223 199.194H54.6335L76.0779 177.75ZM74.0941 175.766L52.6497 197.211V154.322L74.0941 175.766ZM104.478 152.338L125.922 173.782L147.366 152.338H104.478ZM149.35 154.322L127.906 175.766L149.35 197.211V154.322ZM147.366 199.194L125.922 177.75L104.478 199.194H147.366ZM102.494 197.211L123.938 175.766L102.494 154.322V197.211ZM175.766 173.782L154.322 152.338H197.211L175.766 173.782ZM177.75 175.766L199.194 154.322V197.211L177.75 175.766ZM175.766 177.75L197.211 199.194H154.322L175.766 177.75ZM173.782 175.766L152.338 197.211V154.322L173.782 175.766Z" fill="url(#paint0_radial_33_75)"/>
<defs>
<radialGradient id="paint0_radial_33_75" cx="0" cy="0" r="1" gradientUnits="userSpaceOnUse" gradientTransform="translate(101 101) rotate(45) scale(157.676)">
<stop stop-color="white"/>
<stop offset="1" stop-color="white" stop-opacity="0"/>
</radialGradient>
</defs>
</svg>
