<svg width="183" height="162" viewBox="0 0 183 162" fill="none" xmlns="http://www.w3.org/2000/svg">
<path fill-rule="evenodd" clip-rule="evenodd" d="M135.004 0.249104L43.7641 1.2853L0.151112 76.8252L41.9426 161.347L135.722 161.765L182.23 81.211L135.004 0.249104ZM155.484 121.826L178.113 82.6312L141.943 82.4701L119.034 122.151L155.484 121.826ZM153.827 124.696L134.078 158.902L97.908 158.741L117.377 125.021L153.827 124.696ZM114.063 125.05L94.6198 158.727L45.2974 158.507L64.3582 125.493L114.063 125.05ZM61.8933 124.052L42.9286 156.9L20.8769 112.301L38.6916 81.4449L61.8933 124.052ZM40.3645 78.5473L63.5662 121.155L86.8676 80.7954L63.4064 39.0723L63.153 39.0766L40.3645 78.5473ZM37.0915 78.5065L19.3561 109.225L3.38754 76.9294L20.2903 47.653L37.0915 78.5065ZM21.9632 44.7554L38.7644 75.6089L61.4888 36.2492L61.8159 36.2437L44.5773 5.58676L21.9632 44.7554ZM66.0151 122.623L115.72 122.18L138.655 82.4555L89.3325 82.2359L66.0151 122.623ZM138.218 79.5986L89.3476 79.381L66.6511 39.0177L114.082 38.2198L138.218 79.5986ZM112.433 35.3922L65.0605 36.1891L47.0186 4.10348L93.8715 3.57138L112.433 35.3922ZM97.1549 3.53409L115.706 35.3372L151.812 34.7298L133.375 3.12274L97.1549 3.53409ZM153.461 37.5574L117.355 38.1648L141.532 79.6133L178.087 79.7761L153.461 37.5574Z" fill="url(#paint0_linear_22_47)" fill-opacity="0.5"/>
<defs>
<linearGradient id="paint0_linear_22_47" x1="41.3209" y1="0.969365" x2="134.107" y2="166.557" gradientUnits="userSpaceOnUse">
<stop stop-color="white"/>
<stop offset="1" stop-color="#3C3C3C"/>
</linearGradient>
</defs>
</svg>
