<svg width="154" height="165" viewBox="0 0 154 165" fill="none" xmlns="http://www.w3.org/2000/svg">
<path fill-rule="evenodd" clip-rule="evenodd" d="M25.6667 41.25L0 0H154L128.333 41.25H154L128.333 82.5L154 123.75H128.333L154 165H0L25.6667 123.75H0L25.6667 82.5L0 41.25H25.6667ZM75.2889 2.75H4.95L28.9056 41.25H51.3333L75.2889 2.75ZM125.094 41.25H102.667L78.7111 2.75H149.05L125.094 41.25ZM123.383 44L113.881 59.2723L104.378 44H123.383ZM115.5 61.875L126.622 44H149.05L126.714 79.8973L115.5 61.875ZM112.261 61.875L101.139 44H78.7111L101.047 79.8973L112.261 61.875ZM102.667 82.5L113.881 64.4777L125.094 82.5L113.881 100.522L102.667 82.5ZM99.4278 82.5L77 46.4554L54.5722 82.5L77 118.545L99.4278 82.5ZM52.9528 79.8973L75.2889 44H52.8611L41.7389 61.875L52.9528 79.8973ZM40.1194 64.4777L51.3333 82.5L40.1194 100.522L28.9056 82.5L40.1194 64.4777ZM38.5 61.875L27.2861 79.8973L4.95 44H27.3778L38.5 61.875ZM40.1194 59.2723L30.6167 44H49.6222L40.1194 59.2723ZM52.9528 85.1027L75.2889 121H52.8611L41.7389 103.125L52.9528 85.1027ZM78.7111 121L101.047 85.1027L112.261 103.125L101.139 121H78.7111ZM54.5722 123.75L77 159.795L99.4278 123.75H54.5722ZM77 5.20536L99.4278 41.25H54.5722L77 5.20536ZM27.2861 85.1027L38.5 103.125L27.3778 121H4.95L27.2861 85.1027ZM49.6222 121L40.1194 105.728L30.6167 121H49.6222ZM4.95 162.25L28.9056 123.75H51.3333L75.2889 162.25H4.95ZM125.094 123.75L149.05 162.25H78.7111L102.667 123.75H125.094ZM113.881 105.728L123.383 121H104.378L113.881 105.728ZM126.622 121L115.5 103.125L126.714 85.1027L149.05 121H126.622Z" fill="url(#paint0_radial_22_137)" fill-opacity="0.5"/>
<defs>
<radialGradient id="paint0_radial_22_137" cx="0" cy="0" r="1" gradientUnits="userSpaceOnUse" gradientTransform="translate(77 82.5) rotate(54.6052) scale(128.192 119.646)">
<stop stop-color="white"/>
<stop offset="1" stop-color="white" stop-opacity="0"/>
</radialGradient>
</defs>
</svg>
