<svg width="218" height="218" viewBox="0 0 218 218" fill="none" xmlns="http://www.w3.org/2000/svg">
<rect x="0.00280762" y="119.809" width="169.431" height="2.11788" transform="rotate(-45 0.00280762 119.809)" fill="url(#paint0_linear_36_2)"/>
<rect x="2.9978" y="122.803" width="169.431" height="2.11788" transform="rotate(-45 2.9978 122.803)" fill="url(#paint1_linear_36_2)"/>
<rect x="5.99304" y="125.796" width="169.431" height="2.11788" transform="rotate(-45 5.99304 125.796)" fill="url(#paint2_linear_36_2)"/>
<rect x="8.98779" y="128.793" width="169.431" height="2.11788" transform="rotate(-45 8.98779 128.793)" fill="url(#paint3_linear_36_2)"/>
<rect x="11.9827" y="131.788" width="169.431" height="2.11788" transform="rotate(-45 11.9827 131.788)" fill="url(#paint4_linear_36_2)"/>
<rect x="14.9778" y="134.784" width="169.431" height="2.11788" transform="rotate(-45 14.9778 134.784)" fill="url(#paint5_linear_36_2)"/>
<rect x="17.9734" y="137.779" width="169.431" height="2.11788" transform="rotate(-45 17.9734 137.779)" fill="url(#paint6_linear_36_2)"/>
<rect x="20.9683" y="140.774" width="169.431" height="2.11788" transform="rotate(-45 20.9683 140.774)" fill="url(#paint7_linear_36_2)"/>
<rect x="23.9633" y="143.769" width="169.431" height="2.11788" transform="rotate(-45 23.9633 143.769)" fill="url(#paint8_linear_36_2)"/>
<rect x="26.958" y="146.763" width="169.431" height="2.11788" transform="rotate(-45 26.958 146.763)" fill="url(#paint9_linear_36_2)"/>
<rect x="29.9539" y="149.76" width="169.431" height="2.11788" transform="rotate(-45 29.9539 149.76)" fill="url(#paint10_linear_36_2)"/>
<rect x="32.9489" y="152.755" width="169.431" height="2.11788" transform="rotate(-45 32.9489 152.755)" fill="url(#paint11_linear_36_2)"/>
<rect x="35.9441" y="155.75" width="169.431" height="2.11788" transform="rotate(-45 35.9441 155.75)" fill="url(#paint12_linear_36_2)"/>
<rect x="38.9395" y="158.744" width="169.431" height="2.11788" transform="rotate(-45 38.9395 158.744)" fill="url(#paint13_linear_36_2)"/>
<rect x="41.9344" y="161.741" width="169.431" height="2.11788" transform="rotate(-45 41.9344 161.741)" fill="url(#paint14_linear_36_2)"/>
<rect x="44.9303" y="164.734" width="169.431" height="2.11788" transform="rotate(-45 44.9303 164.734)" fill="url(#paint15_linear_36_2)"/>
<rect x="47.925" y="167.73" width="169.431" height="2.11788" transform="rotate(-45 47.925 167.73)" fill="url(#paint16_linear_36_2)"/>
<rect x="50.92" y="170.727" width="169.431" height="2.11788" transform="rotate(-45 50.92 170.727)" fill="url(#paint17_linear_36_2)"/>
<rect x="53.9153" y="173.721" width="169.431" height="2.11788" transform="rotate(-45 53.9153 173.721)" fill="url(#paint18_linear_36_2)"/>
<rect x="56.91" y="176.717" width="169.431" height="2.11788" transform="rotate(-45 56.91 176.717)" fill="url(#paint19_linear_36_2)"/>
<rect x="59.9049" y="179.711" width="169.431" height="2.11788" transform="rotate(-45 59.9049 179.711)" fill="url(#paint20_linear_36_2)"/>
<rect x="62.8999" y="182.706" width="169.431" height="2.11788" transform="rotate(-45 62.8999 182.706)" fill="url(#paint21_linear_36_2)"/>
<rect x="65.8953" y="185.702" width="169.431" height="2.11788" transform="rotate(-45 65.8953 185.702)" fill="url(#paint22_linear_36_2)"/>
<rect x="68.8909" y="188.697" width="169.431" height="2.11788" transform="rotate(-45 68.8909 188.697)" fill="url(#paint23_linear_36_2)"/>
<rect x="71.8855" y="191.692" width="169.431" height="2.11788" transform="rotate(-45 71.8855 191.692)" fill="url(#paint24_linear_36_2)"/>
<rect x="74.8807" y="194.687" width="169.431" height="2.11788" transform="rotate(-45 74.8807 194.687)" fill="url(#paint25_linear_36_2)"/>
<rect x="77.8755" y="197.681" width="169.431" height="2.11788" transform="rotate(-45 77.8755 197.681)" fill="url(#paint26_linear_36_2)"/>
<rect x="80.8711" y="200.678" width="169.431" height="2.11788" transform="rotate(-45 80.8711 200.678)" fill="url(#paint27_linear_36_2)"/>
<rect x="83.8663" y="203.672" width="169.431" height="2.11788" transform="rotate(-45 83.8663 203.672)" fill="url(#paint28_linear_36_2)"/>
<rect x="86.8607" y="206.668" width="169.431" height="2.11788" transform="rotate(-45 86.8607 206.668)" fill="url(#paint29_linear_36_2)"/>
<rect x="89.8563" y="209.664" width="169.431" height="2.11788" transform="rotate(-45 89.8563 209.664)" fill="url(#paint30_linear_36_2)"/>
<rect x="92.8516" y="212.657" width="169.431" height="2.11788" transform="rotate(-45 92.8516 212.657)" fill="url(#paint31_linear_36_2)"/>
<rect x="95.8467" y="215.654" width="169.431" height="2.11788" transform="rotate(-45 95.8467 215.654)" fill="url(#paint32_linear_36_2)"/>
<rect x="119.807" y="217.15" width="169.431" height="2.11788" transform="rotate(-135 119.807 217.15)" fill="url(#paint33_linear_36_2)"/>
<rect x="122.803" y="214.154" width="169.431" height="2.11788" transform="rotate(-135 122.803 214.154)" fill="url(#paint34_linear_36_2)"/>
<rect x="125.798" y="211.159" width="169.431" height="2.11788" transform="rotate(-135 125.798 211.159)" fill="url(#paint35_linear_36_2)"/>
<rect x="128.793" y="208.163" width="169.431" height="2.11788" transform="rotate(-135 128.793 208.163)" fill="url(#paint36_linear_36_2)"/>
<rect x="131.788" y="205.167" width="169.431" height="2.11788" transform="rotate(-135 131.788 205.167)" fill="url(#paint37_linear_36_2)"/>
<rect x="134.782" y="202.173" width="169.431" height="2.11788" transform="rotate(-135 134.782 202.173)" fill="url(#paint38_linear_36_2)"/>
<rect x="137.779" y="199.178" width="169.431" height="2.11788" transform="rotate(-135 137.779 199.178)" fill="url(#paint39_linear_36_2)"/>
<rect x="140.773" y="196.183" width="169.431" height="2.11788" transform="rotate(-135 140.773 196.183)" fill="url(#paint40_linear_36_2)"/>
<rect x="143.768" y="193.187" width="169.431" height="2.11788" transform="rotate(-135 143.768 193.187)" fill="url(#paint41_linear_36_2)"/>
<rect x="146.764" y="190.192" width="169.431" height="2.11788" transform="rotate(-135 146.764 190.192)" fill="url(#paint42_linear_36_2)"/>
<rect x="149.758" y="187.198" width="169.431" height="2.11788" transform="rotate(-135 149.758 187.198)" fill="url(#paint43_linear_36_2)"/>
<rect x="152.754" y="184.203" width="169.431" height="2.11788" transform="rotate(-135 152.754 184.203)" fill="url(#paint44_linear_36_2)"/>
<rect x="155.749" y="181.208" width="169.431" height="2.11788" transform="rotate(-135 155.749 181.208)" fill="url(#paint45_linear_36_2)"/>
<rect x="158.745" y="178.209" width="169.431" height="2.11788" transform="rotate(-135 158.745 178.209)" fill="url(#paint46_linear_36_2)"/>
<rect x="161.739" y="175.217" width="169.431" height="2.11788" transform="rotate(-135 161.739 175.217)" fill="url(#paint47_linear_36_2)"/>
<rect x="164.734" y="172.222" width="169.431" height="2.11788" transform="rotate(-135 164.734 172.222)" fill="url(#paint48_linear_36_2)"/>
<rect x="167.73" y="169.228" width="169.431" height="2.11788" transform="rotate(-135 167.73 169.228)" fill="url(#paint49_linear_36_2)"/>
<rect x="170.725" y="166.231" width="169.431" height="2.11788" transform="rotate(-135 170.725 166.231)" fill="url(#paint50_linear_36_2)"/>
<rect x="173.72" y="163.234" width="169.431" height="2.11788" transform="rotate(-135 173.72 163.234)" fill="url(#paint51_linear_36_2)"/>
<rect x="176.714" y="160.243" width="169.431" height="2.11788" transform="rotate(-135 176.714 160.243)" fill="url(#paint52_linear_36_2)"/>
<rect x="179.709" y="157.247" width="169.431" height="2.11788" transform="rotate(-135 179.709 157.247)" fill="url(#paint53_linear_36_2)"/>
<rect x="182.705" y="154.25" width="169.431" height="2.11788" transform="rotate(-135 182.705 154.25)" fill="url(#paint54_linear_36_2)"/>
<rect x="185.701" y="151.255" width="169.431" height="2.11788" transform="rotate(-135 185.701 151.255)" fill="url(#paint55_linear_36_2)"/>
<rect x="188.696" y="148.259" width="169.431" height="2.11788" transform="rotate(-135 188.696 148.259)" fill="url(#paint56_linear_36_2)"/>
<rect x="191.69" y="145.265" width="169.431" height="2.11788" transform="rotate(-135 191.69 145.265)" fill="url(#paint57_linear_36_2)"/>
<rect x="194.685" y="142.271" width="169.431" height="2.11788" transform="rotate(-135 194.685 142.271)" fill="url(#paint58_linear_36_2)"/>
<rect x="197.682" y="139.274" width="169.431" height="2.11788" transform="rotate(-135 197.682 139.274)" fill="url(#paint59_linear_36_2)"/>
<rect x="200.677" y="136.28" width="169.431" height="2.11788" transform="rotate(-135 200.677 136.28)" fill="url(#paint60_linear_36_2)"/>
<rect x="203.672" y="133.283" width="169.431" height="2.11788" transform="rotate(-135 203.672 133.283)" fill="url(#paint61_linear_36_2)"/>
<rect x="206.667" y="130.29" width="169.431" height="2.11788" transform="rotate(-135 206.667 130.29)" fill="url(#paint62_linear_36_2)"/>
<rect x="209.661" y="127.294" width="169.431" height="2.11788" transform="rotate(-135 209.661 127.294)" fill="url(#paint63_linear_36_2)"/>
<rect x="212.657" y="124.299" width="169.431" height="2.11788" transform="rotate(-135 212.657 124.299)" fill="url(#paint64_linear_36_2)"/>
<rect x="215.652" y="121.304" width="169.431" height="2.11788" transform="rotate(-135 215.652 121.304)" fill="url(#paint65_linear_36_2)"/>
<defs>
<linearGradient id="paint0_linear_36_2" x1="5.29751" y1="119.825" x2="5.39149" y2="124.896" gradientUnits="userSpaceOnUse">
<stop stop-color="white"/>
<stop offset="1" stop-color="white" stop-opacity="0"/>
</linearGradient>
<linearGradient id="paint1_linear_36_2" x1="8.29251" y1="122.82" x2="8.38648" y2="127.89" gradientUnits="userSpaceOnUse">
<stop stop-color="white"/>
<stop offset="1" stop-color="white" stop-opacity="0"/>
</linearGradient>
<linearGradient id="paint2_linear_36_2" x1="11.2877" y1="125.813" x2="11.3817" y2="130.883" gradientUnits="userSpaceOnUse">
<stop stop-color="white"/>
<stop offset="1" stop-color="white" stop-opacity="0"/>
</linearGradient>
<linearGradient id="paint3_linear_36_2" x1="14.2825" y1="128.81" x2="14.3765" y2="133.88" gradientUnits="userSpaceOnUse">
<stop stop-color="white"/>
<stop offset="1" stop-color="white" stop-opacity="0"/>
</linearGradient>
<linearGradient id="paint4_linear_36_2" x1="17.2774" y1="131.804" x2="17.3713" y2="136.874" gradientUnits="userSpaceOnUse">
<stop stop-color="white"/>
<stop offset="1" stop-color="white" stop-opacity="0"/>
</linearGradient>
<linearGradient id="paint5_linear_36_2" x1="20.2725" y1="134.801" x2="20.3665" y2="139.871" gradientUnits="userSpaceOnUse">
<stop stop-color="white"/>
<stop offset="1" stop-color="white" stop-opacity="0"/>
</linearGradient>
<linearGradient id="paint6_linear_36_2" x1="23.2681" y1="137.795" x2="23.3621" y2="142.865" gradientUnits="userSpaceOnUse">
<stop stop-color="white"/>
<stop offset="1" stop-color="white" stop-opacity="0"/>
</linearGradient>
<linearGradient id="paint7_linear_36_2" x1="26.263" y1="140.791" x2="26.3569" y2="145.861" gradientUnits="userSpaceOnUse">
<stop stop-color="white"/>
<stop offset="1" stop-color="white" stop-opacity="0"/>
</linearGradient>
<linearGradient id="paint8_linear_36_2" x1="29.258" y1="143.785" x2="29.3519" y2="148.855" gradientUnits="userSpaceOnUse">
<stop stop-color="white"/>
<stop offset="1" stop-color="white" stop-opacity="0"/>
</linearGradient>
<linearGradient id="paint9_linear_36_2" x1="32.2527" y1="146.779" x2="32.3467" y2="151.85" gradientUnits="userSpaceOnUse">
<stop stop-color="white"/>
<stop offset="1" stop-color="white" stop-opacity="0"/>
</linearGradient>
<linearGradient id="paint10_linear_36_2" x1="35.2486" y1="149.776" x2="35.3425" y2="154.846" gradientUnits="userSpaceOnUse">
<stop stop-color="white"/>
<stop offset="1" stop-color="white" stop-opacity="0"/>
</linearGradient>
<linearGradient id="paint11_linear_36_2" x1="38.2436" y1="152.771" x2="38.3375" y2="157.841" gradientUnits="userSpaceOnUse">
<stop stop-color="white"/>
<stop offset="1" stop-color="white" stop-opacity="0"/>
</linearGradient>
<linearGradient id="paint12_linear_36_2" x1="41.2388" y1="155.766" x2="41.3328" y2="160.836" gradientUnits="userSpaceOnUse">
<stop stop-color="white"/>
<stop offset="1" stop-color="white" stop-opacity="0"/>
</linearGradient>
<linearGradient id="paint13_linear_36_2" x1="44.2342" y1="158.761" x2="44.3281" y2="163.831" gradientUnits="userSpaceOnUse">
<stop stop-color="white"/>
<stop offset="1" stop-color="white" stop-opacity="0"/>
</linearGradient>
<linearGradient id="paint14_linear_36_2" x1="47.2292" y1="161.758" x2="47.3231" y2="166.828" gradientUnits="userSpaceOnUse">
<stop stop-color="white"/>
<stop offset="1" stop-color="white" stop-opacity="0"/>
</linearGradient>
<linearGradient id="paint15_linear_36_2" x1="50.225" y1="164.75" x2="50.319" y2="169.821" gradientUnits="userSpaceOnUse">
<stop stop-color="white"/>
<stop offset="1" stop-color="white" stop-opacity="0"/>
</linearGradient>
<linearGradient id="paint16_linear_36_2" x1="53.2198" y1="167.747" x2="53.3137" y2="172.817" gradientUnits="userSpaceOnUse">
<stop stop-color="white"/>
<stop offset="1" stop-color="white" stop-opacity="0"/>
</linearGradient>
<linearGradient id="paint17_linear_36_2" x1="56.2148" y1="170.743" x2="56.3087" y2="175.813" gradientUnits="userSpaceOnUse">
<stop stop-color="white"/>
<stop offset="1" stop-color="white" stop-opacity="0"/>
</linearGradient>
<linearGradient id="paint18_linear_36_2" x1="59.21" y1="173.738" x2="59.304" y2="178.808" gradientUnits="userSpaceOnUse">
<stop stop-color="white"/>
<stop offset="1" stop-color="white" stop-opacity="0"/>
</linearGradient>
<linearGradient id="paint19_linear_36_2" x1="62.2047" y1="176.733" x2="62.2987" y2="181.803" gradientUnits="userSpaceOnUse">
<stop stop-color="white"/>
<stop offset="1" stop-color="white" stop-opacity="0"/>
</linearGradient>
<linearGradient id="paint20_linear_36_2" x1="65.1996" y1="179.727" x2="65.2936" y2="184.798" gradientUnits="userSpaceOnUse">
<stop stop-color="white"/>
<stop offset="1" stop-color="white" stop-opacity="0"/>
</linearGradient>
<linearGradient id="paint21_linear_36_2" x1="68.1946" y1="182.722" x2="68.2886" y2="187.792" gradientUnits="userSpaceOnUse">
<stop stop-color="white"/>
<stop offset="1" stop-color="white" stop-opacity="0"/>
</linearGradient>
<linearGradient id="paint22_linear_36_2" x1="71.19" y1="185.719" x2="71.2839" y2="190.789" gradientUnits="userSpaceOnUse">
<stop stop-color="white"/>
<stop offset="1" stop-color="white" stop-opacity="0"/>
</linearGradient>
<linearGradient id="paint23_linear_36_2" x1="74.1856" y1="188.713" x2="74.2795" y2="193.783" gradientUnits="userSpaceOnUse">
<stop stop-color="white"/>
<stop offset="1" stop-color="white" stop-opacity="0"/>
</linearGradient>
<linearGradient id="paint24_linear_36_2" x1="77.1802" y1="191.708" x2="77.2742" y2="196.779" gradientUnits="userSpaceOnUse">
<stop stop-color="white"/>
<stop offset="1" stop-color="white" stop-opacity="0"/>
</linearGradient>
<linearGradient id="paint25_linear_36_2" x1="80.1754" y1="194.703" x2="80.2694" y2="199.773" gradientUnits="userSpaceOnUse">
<stop stop-color="white"/>
<stop offset="1" stop-color="white" stop-opacity="0"/>
</linearGradient>
<linearGradient id="paint26_linear_36_2" x1="83.1702" y1="197.697" x2="83.2642" y2="202.768" gradientUnits="userSpaceOnUse">
<stop stop-color="white"/>
<stop offset="1" stop-color="white" stop-opacity="0"/>
</linearGradient>
<linearGradient id="paint27_linear_36_2" x1="86.1658" y1="200.694" x2="86.2598" y2="205.764" gradientUnits="userSpaceOnUse">
<stop stop-color="white"/>
<stop offset="1" stop-color="white" stop-opacity="0"/>
</linearGradient>
<linearGradient id="paint28_linear_36_2" x1="89.161" y1="203.689" x2="89.255" y2="208.759" gradientUnits="userSpaceOnUse">
<stop stop-color="white"/>
<stop offset="1" stop-color="white" stop-opacity="0"/>
</linearGradient>
<linearGradient id="paint29_linear_36_2" x1="92.1554" y1="206.684" x2="92.2494" y2="211.754" gradientUnits="userSpaceOnUse">
<stop stop-color="white"/>
<stop offset="1" stop-color="white" stop-opacity="0"/>
</linearGradient>
<linearGradient id="paint30_linear_36_2" x1="95.151" y1="209.68" x2="95.245" y2="214.75" gradientUnits="userSpaceOnUse">
<stop stop-color="white"/>
<stop offset="1" stop-color="white" stop-opacity="0"/>
</linearGradient>
<linearGradient id="paint31_linear_36_2" x1="98.1463" y1="212.673" x2="98.2402" y2="217.743" gradientUnits="userSpaceOnUse">
<stop stop-color="white"/>
<stop offset="1" stop-color="white" stop-opacity="0"/>
</linearGradient>
<linearGradient id="paint32_linear_36_2" x1="101.141" y1="215.67" x2="101.235" y2="220.74" gradientUnits="userSpaceOnUse">
<stop stop-color="white"/>
<stop offset="1" stop-color="white" stop-opacity="0"/>
</linearGradient>
<linearGradient id="paint33_linear_36_2" x1="287.12" y1="217.15" x2="287.069" y2="221.009" gradientUnits="userSpaceOnUse">
<stop stop-color="white"/>
<stop offset="1" stop-color="white" stop-opacity="0"/>
</linearGradient>
<linearGradient id="paint34_linear_36_2" x1="290.115" y1="214.154" x2="290.065" y2="218.013" gradientUnits="userSpaceOnUse">
<stop stop-color="white"/>
<stop offset="1" stop-color="white" stop-opacity="0"/>
</linearGradient>
<linearGradient id="paint35_linear_36_2" x1="293.11" y1="211.159" x2="293.06" y2="215.018" gradientUnits="userSpaceOnUse">
<stop stop-color="white"/>
<stop offset="1" stop-color="white" stop-opacity="0"/>
</linearGradient>
<linearGradient id="paint36_linear_36_2" x1="296.106" y1="208.163" x2="296.055" y2="212.022" gradientUnits="userSpaceOnUse">
<stop stop-color="white"/>
<stop offset="1" stop-color="white" stop-opacity="0"/>
</linearGradient>
<linearGradient id="paint37_linear_36_2" x1="299.101" y1="205.167" x2="299.05" y2="209.027" gradientUnits="userSpaceOnUse">
<stop stop-color="white"/>
<stop offset="1" stop-color="white" stop-opacity="0"/>
</linearGradient>
<linearGradient id="paint38_linear_36_2" x1="302.095" y1="202.173" x2="302.044" y2="206.032" gradientUnits="userSpaceOnUse">
<stop stop-color="white"/>
<stop offset="1" stop-color="white" stop-opacity="0"/>
</linearGradient>
<linearGradient id="paint39_linear_36_2" x1="305.091" y1="199.178" x2="305.041" y2="203.038" gradientUnits="userSpaceOnUse">
<stop stop-color="white"/>
<stop offset="1" stop-color="white" stop-opacity="0"/>
</linearGradient>
<linearGradient id="paint40_linear_36_2" x1="308.085" y1="196.183" x2="308.035" y2="200.042" gradientUnits="userSpaceOnUse">
<stop stop-color="white"/>
<stop offset="1" stop-color="white" stop-opacity="0"/>
</linearGradient>
<linearGradient id="paint41_linear_36_2" x1="311.081" y1="193.187" x2="311.03" y2="197.046" gradientUnits="userSpaceOnUse">
<stop stop-color="white"/>
<stop offset="1" stop-color="white" stop-opacity="0"/>
</linearGradient>
<linearGradient id="paint42_linear_36_2" x1="314.077" y1="190.192" x2="314.026" y2="194.051" gradientUnits="userSpaceOnUse">
<stop stop-color="white"/>
<stop offset="1" stop-color="white" stop-opacity="0"/>
</linearGradient>
<linearGradient id="paint43_linear_36_2" x1="317.071" y1="187.198" x2="317.02" y2="191.057" gradientUnits="userSpaceOnUse">
<stop stop-color="white"/>
<stop offset="1" stop-color="white" stop-opacity="0"/>
</linearGradient>
<linearGradient id="paint44_linear_36_2" x1="320.066" y1="184.203" x2="320.016" y2="188.062" gradientUnits="userSpaceOnUse">
<stop stop-color="white"/>
<stop offset="1" stop-color="white" stop-opacity="0"/>
</linearGradient>
<linearGradient id="paint45_linear_36_2" x1="323.061" y1="181.208" x2="323.011" y2="185.067" gradientUnits="userSpaceOnUse">
<stop stop-color="white"/>
<stop offset="1" stop-color="white" stop-opacity="0"/>
</linearGradient>
<linearGradient id="paint46_linear_36_2" x1="326.058" y1="178.209" x2="326.007" y2="182.069" gradientUnits="userSpaceOnUse">
<stop stop-color="white"/>
<stop offset="1" stop-color="white" stop-opacity="0"/>
</linearGradient>
<linearGradient id="paint47_linear_36_2" x1="329.052" y1="175.217" x2="329.001" y2="179.076" gradientUnits="userSpaceOnUse">
<stop stop-color="white"/>
<stop offset="1" stop-color="white" stop-opacity="0"/>
</linearGradient>
<linearGradient id="paint48_linear_36_2" x1="332.047" y1="172.222" x2="331.996" y2="176.081" gradientUnits="userSpaceOnUse">
<stop stop-color="white"/>
<stop offset="1" stop-color="white" stop-opacity="0"/>
</linearGradient>
<linearGradient id="paint49_linear_36_2" x1="335.042" y1="169.228" x2="334.992" y2="173.087" gradientUnits="userSpaceOnUse">
<stop stop-color="white"/>
<stop offset="1" stop-color="white" stop-opacity="0"/>
</linearGradient>
<linearGradient id="paint50_linear_36_2" x1="338.038" y1="166.231" x2="337.987" y2="170.09" gradientUnits="userSpaceOnUse">
<stop stop-color="white"/>
<stop offset="1" stop-color="white" stop-opacity="0"/>
</linearGradient>
<linearGradient id="paint51_linear_36_2" x1="341.032" y1="163.234" x2="340.982" y2="167.093" gradientUnits="userSpaceOnUse">
<stop stop-color="white"/>
<stop offset="1" stop-color="white" stop-opacity="0"/>
</linearGradient>
<linearGradient id="paint52_linear_36_2" x1="344.027" y1="160.243" x2="343.976" y2="164.102" gradientUnits="userSpaceOnUse">
<stop stop-color="white"/>
<stop offset="1" stop-color="white" stop-opacity="0"/>
</linearGradient>
<linearGradient id="paint53_linear_36_2" x1="347.022" y1="157.247" x2="346.971" y2="161.106" gradientUnits="userSpaceOnUse">
<stop stop-color="white"/>
<stop offset="1" stop-color="white" stop-opacity="0"/>
</linearGradient>
<linearGradient id="paint54_linear_36_2" x1="350.017" y1="154.25" x2="349.967" y2="158.109" gradientUnits="userSpaceOnUse">
<stop stop-color="white"/>
<stop offset="1" stop-color="white" stop-opacity="0"/>
</linearGradient>
<linearGradient id="paint55_linear_36_2" x1="353.013" y1="151.255" x2="352.963" y2="155.114" gradientUnits="userSpaceOnUse">
<stop stop-color="white"/>
<stop offset="1" stop-color="white" stop-opacity="0"/>
</linearGradient>
<linearGradient id="paint56_linear_36_2" x1="356.009" y1="148.259" x2="355.958" y2="152.118" gradientUnits="userSpaceOnUse">
<stop stop-color="white"/>
<stop offset="1" stop-color="white" stop-opacity="0"/>
</linearGradient>
<linearGradient id="paint57_linear_36_2" x1="359.003" y1="145.265" x2="358.952" y2="149.124" gradientUnits="userSpaceOnUse">
<stop stop-color="white"/>
<stop offset="1" stop-color="white" stop-opacity="0"/>
</linearGradient>
<linearGradient id="paint58_linear_36_2" x1="361.998" y1="142.271" x2="361.947" y2="146.13" gradientUnits="userSpaceOnUse">
<stop stop-color="white"/>
<stop offset="1" stop-color="white" stop-opacity="0"/>
</linearGradient>
<linearGradient id="paint59_linear_36_2" x1="364.994" y1="139.274" x2="364.944" y2="143.133" gradientUnits="userSpaceOnUse">
<stop stop-color="white"/>
<stop offset="1" stop-color="white" stop-opacity="0"/>
</linearGradient>
<linearGradient id="paint60_linear_36_2" x1="367.99" y1="136.28" x2="367.939" y2="140.139" gradientUnits="userSpaceOnUse">
<stop stop-color="white"/>
<stop offset="1" stop-color="white" stop-opacity="0"/>
</linearGradient>
<linearGradient id="paint61_linear_36_2" x1="370.985" y1="133.283" x2="370.934" y2="137.142" gradientUnits="userSpaceOnUse">
<stop stop-color="white"/>
<stop offset="1" stop-color="white" stop-opacity="0"/>
</linearGradient>
<linearGradient id="paint62_linear_36_2" x1="373.979" y1="130.29" x2="373.929" y2="134.149" gradientUnits="userSpaceOnUse">
<stop stop-color="white"/>
<stop offset="1" stop-color="white" stop-opacity="0"/>
</linearGradient>
<linearGradient id="paint63_linear_36_2" x1="376.974" y1="127.294" x2="376.923" y2="131.153" gradientUnits="userSpaceOnUse">
<stop stop-color="white"/>
<stop offset="1" stop-color="white" stop-opacity="0"/>
</linearGradient>
<linearGradient id="paint64_linear_36_2" x1="379.969" y1="124.299" x2="379.919" y2="128.158" gradientUnits="userSpaceOnUse">
<stop stop-color="white"/>
<stop offset="1" stop-color="white" stop-opacity="0"/>
</linearGradient>
<linearGradient id="paint65_linear_36_2" x1="382.965" y1="121.304" x2="382.914" y2="125.163" gradientUnits="userSpaceOnUse">
<stop stop-color="white"/>
<stop offset="1" stop-color="white" stop-opacity="0"/>
</linearGradient>
</defs>
</svg>
