<svg width="197" height="197" viewBox="0 0 197 197" fill="none" xmlns="http://www.w3.org/2000/svg">
<path d="M0 0H3.51786V169.297H0V0Z" fill="url(#paint0_linear_36_3)"/>
<path d="M7.03571 0H10.5536V169.297H7.03571V0Z" fill="url(#paint1_linear_36_3)"/>
<path d="M17.5893 0V169.297H14.0714V0H17.5893Z" fill="url(#paint2_linear_36_3)"/>
<path d="M21.1071 0H24.625V169.297H21.1071V0Z" fill="url(#paint3_linear_36_3)"/>
<path d="M172.375 27.7031H175.893V197H172.375V27.7031Z" fill="url(#paint4_linear_36_3)"/>
<path d="M179.411 27.7031H182.929V197H179.411V27.7031Z" fill="url(#paint5_linear_36_3)"/>
<path d="M189.964 27.7031V197H186.446V27.7031H189.964Z" fill="url(#paint6_linear_36_3)"/>
<path d="M193.482 27.7031H197V197H193.482V27.7031Z" fill="url(#paint7_linear_36_3)"/>
<path d="M27.7031 0V3.51786H197V0H27.7031Z" fill="url(#paint8_linear_36_3)"/>
<path d="M197 7.03571H27.7031V10.5536H197V7.03571Z" fill="url(#paint9_linear_36_3)"/>
<path d="M27.7031 14.0714V17.5893H197V14.0714H27.7031Z" fill="url(#paint10_linear_36_3)"/>
<path d="M27.7031 21.1071V24.625H197V21.1071H27.7031Z" fill="url(#paint11_linear_36_3)"/>
<path d="M0 175.893V172.375H169.297V175.893H0Z" fill="url(#paint12_linear_36_3)"/>
<path d="M0 179.411H169.297V182.929H0V179.411Z" fill="url(#paint13_linear_36_3)"/>
<path d="M0 189.964V186.446H169.297V189.964H0Z" fill="url(#paint14_linear_36_3)"/>
<path d="M0 197V193.482H169.297V197H0Z" fill="url(#paint15_linear_36_3)"/>
<path d="M37 37H39.1964V142.703H37V37Z" fill="url(#paint16_linear_36_3)"/>
<path d="M41.3929 37H43.5893V142.703H41.3929V37Z" fill="url(#paint17_linear_36_3)"/>
<path d="M47.9821 37V142.703H45.7857V37H47.9821Z" fill="url(#paint18_linear_36_3)"/>
<path d="M50.1786 37H52.375V142.703H50.1786V37Z" fill="url(#paint19_linear_36_3)"/>
<path d="M144.625 54.2969H146.821V160H144.625V54.2969Z" fill="url(#paint20_linear_36_3)"/>
<path d="M149.018 54.2969H151.214V160H149.018V54.2969Z" fill="url(#paint21_linear_36_3)"/>
<path d="M155.607 54.2969V160H153.411V54.2969H155.607Z" fill="url(#paint22_linear_36_3)"/>
<path d="M157.804 54.2969H160V160H157.804V54.2969Z" fill="url(#paint23_linear_36_3)"/>
<path d="M54.2969 37V39.1964H160V37H54.2969Z" fill="url(#paint24_linear_36_3)"/>
<path d="M160 41.3929H54.2969V43.5893H160V41.3929Z" fill="url(#paint25_linear_36_3)"/>
<path d="M54.2969 45.7857V47.9821H160V45.7857H54.2969Z" fill="url(#paint26_linear_36_3)"/>
<path d="M54.2969 50.1786V52.375H160V50.1786H54.2969Z" fill="url(#paint27_linear_36_3)"/>
<path d="M37 146.821V144.625H142.703V146.821H37Z" fill="url(#paint28_linear_36_3)"/>
<path d="M37 149.018H142.703V151.214H37V149.018Z" fill="url(#paint29_linear_36_3)"/>
<path d="M37 155.607V153.411H142.703V155.607H37Z" fill="url(#paint30_linear_36_3)"/>
<path d="M37 160V157.804H142.703V160H37Z" fill="url(#paint31_linear_36_3)"/>
<defs>
<linearGradient id="paint0_linear_36_3" x1="3.07813" y1="-5.38371e-06" x2="200.078" y2="209.312" gradientUnits="userSpaceOnUse">
<stop stop-color="white"/>
<stop offset="1" stop-color="white" stop-opacity="0"/>
</linearGradient>
<linearGradient id="paint1_linear_36_3" x1="3.07813" y1="-5.38371e-06" x2="200.078" y2="209.312" gradientUnits="userSpaceOnUse">
<stop stop-color="white"/>
<stop offset="1" stop-color="white" stop-opacity="0"/>
</linearGradient>
<linearGradient id="paint2_linear_36_3" x1="3.07813" y1="-5.38371e-06" x2="200.078" y2="209.312" gradientUnits="userSpaceOnUse">
<stop stop-color="white"/>
<stop offset="1" stop-color="white" stop-opacity="0"/>
</linearGradient>
<linearGradient id="paint3_linear_36_3" x1="3.07813" y1="-5.38371e-06" x2="200.078" y2="209.312" gradientUnits="userSpaceOnUse">
<stop stop-color="white"/>
<stop offset="1" stop-color="white" stop-opacity="0"/>
</linearGradient>
<linearGradient id="paint4_linear_36_3" x1="3.07813" y1="-5.38371e-06" x2="200.078" y2="209.312" gradientUnits="userSpaceOnUse">
<stop stop-color="white"/>
<stop offset="1" stop-color="white" stop-opacity="0"/>
</linearGradient>
<linearGradient id="paint5_linear_36_3" x1="3.07813" y1="-5.38371e-06" x2="200.078" y2="209.312" gradientUnits="userSpaceOnUse">
<stop stop-color="white"/>
<stop offset="1" stop-color="white" stop-opacity="0"/>
</linearGradient>
<linearGradient id="paint6_linear_36_3" x1="3.07813" y1="-5.38371e-06" x2="200.078" y2="209.312" gradientUnits="userSpaceOnUse">
<stop stop-color="white"/>
<stop offset="1" stop-color="white" stop-opacity="0"/>
</linearGradient>
<linearGradient id="paint7_linear_36_3" x1="3.07813" y1="-5.38371e-06" x2="200.078" y2="209.312" gradientUnits="userSpaceOnUse">
<stop stop-color="white"/>
<stop offset="1" stop-color="white" stop-opacity="0"/>
</linearGradient>
<linearGradient id="paint8_linear_36_3" x1="3.07813" y1="-5.38371e-06" x2="200.078" y2="209.312" gradientUnits="userSpaceOnUse">
<stop stop-color="white"/>
<stop offset="1" stop-color="white" stop-opacity="0"/>
</linearGradient>
<linearGradient id="paint9_linear_36_3" x1="3.07813" y1="-5.38371e-06" x2="200.078" y2="209.312" gradientUnits="userSpaceOnUse">
<stop stop-color="white"/>
<stop offset="1" stop-color="white" stop-opacity="0"/>
</linearGradient>
<linearGradient id="paint10_linear_36_3" x1="3.07813" y1="-5.38371e-06" x2="200.078" y2="209.312" gradientUnits="userSpaceOnUse">
<stop stop-color="white"/>
<stop offset="1" stop-color="white" stop-opacity="0"/>
</linearGradient>
<linearGradient id="paint11_linear_36_3" x1="3.07813" y1="-5.38371e-06" x2="200.078" y2="209.312" gradientUnits="userSpaceOnUse">
<stop stop-color="white"/>
<stop offset="1" stop-color="white" stop-opacity="0"/>
</linearGradient>
<linearGradient id="paint12_linear_36_3" x1="3.07813" y1="-5.38371e-06" x2="200.078" y2="209.312" gradientUnits="userSpaceOnUse">
<stop stop-color="white"/>
<stop offset="1" stop-color="white" stop-opacity="0"/>
</linearGradient>
<linearGradient id="paint13_linear_36_3" x1="3.07813" y1="-5.38371e-06" x2="200.078" y2="209.312" gradientUnits="userSpaceOnUse">
<stop stop-color="white"/>
<stop offset="1" stop-color="white" stop-opacity="0"/>
</linearGradient>
<linearGradient id="paint14_linear_36_3" x1="3.07813" y1="-5.38371e-06" x2="200.078" y2="209.312" gradientUnits="userSpaceOnUse">
<stop stop-color="white"/>
<stop offset="1" stop-color="white" stop-opacity="0"/>
</linearGradient>
<linearGradient id="paint15_linear_36_3" x1="3.07813" y1="-5.38371e-06" x2="200.078" y2="209.312" gradientUnits="userSpaceOnUse">
<stop stop-color="white"/>
<stop offset="1" stop-color="white" stop-opacity="0"/>
</linearGradient>
<linearGradient id="paint16_linear_36_3" x1="157.205" y1="37" x2="32.8068" y2="166.989" gradientUnits="userSpaceOnUse">
<stop stop-color="white"/>
<stop offset="1" stop-color="white" stop-opacity="0"/>
</linearGradient>
<linearGradient id="paint17_linear_36_3" x1="157.205" y1="37" x2="32.8068" y2="166.989" gradientUnits="userSpaceOnUse">
<stop stop-color="white"/>
<stop offset="1" stop-color="white" stop-opacity="0"/>
</linearGradient>
<linearGradient id="paint18_linear_36_3" x1="157.205" y1="37" x2="32.8068" y2="166.989" gradientUnits="userSpaceOnUse">
<stop stop-color="white"/>
<stop offset="1" stop-color="white" stop-opacity="0"/>
</linearGradient>
<linearGradient id="paint19_linear_36_3" x1="157.205" y1="37" x2="32.8068" y2="166.989" gradientUnits="userSpaceOnUse">
<stop stop-color="white"/>
<stop offset="1" stop-color="white" stop-opacity="0"/>
</linearGradient>
<linearGradient id="paint20_linear_36_3" x1="157.205" y1="37" x2="32.8068" y2="166.989" gradientUnits="userSpaceOnUse">
<stop stop-color="white"/>
<stop offset="1" stop-color="white" stop-opacity="0"/>
</linearGradient>
<linearGradient id="paint21_linear_36_3" x1="157.205" y1="37" x2="32.8068" y2="166.989" gradientUnits="userSpaceOnUse">
<stop stop-color="white"/>
<stop offset="1" stop-color="white" stop-opacity="0"/>
</linearGradient>
<linearGradient id="paint22_linear_36_3" x1="157.205" y1="37" x2="32.8068" y2="166.989" gradientUnits="userSpaceOnUse">
<stop stop-color="white"/>
<stop offset="1" stop-color="white" stop-opacity="0"/>
</linearGradient>
<linearGradient id="paint23_linear_36_3" x1="157.205" y1="37" x2="32.8068" y2="166.989" gradientUnits="userSpaceOnUse">
<stop stop-color="white"/>
<stop offset="1" stop-color="white" stop-opacity="0"/>
</linearGradient>
<linearGradient id="paint24_linear_36_3" x1="157.205" y1="37" x2="32.8068" y2="166.989" gradientUnits="userSpaceOnUse">
<stop stop-color="white"/>
<stop offset="1" stop-color="white" stop-opacity="0"/>
</linearGradient>
<linearGradient id="paint25_linear_36_3" x1="157.205" y1="37" x2="32.8068" y2="166.989" gradientUnits="userSpaceOnUse">
<stop stop-color="white"/>
<stop offset="1" stop-color="white" stop-opacity="0"/>
</linearGradient>
<linearGradient id="paint26_linear_36_3" x1="157.205" y1="37" x2="32.8068" y2="166.989" gradientUnits="userSpaceOnUse">
<stop stop-color="white"/>
<stop offset="1" stop-color="white" stop-opacity="0"/>
</linearGradient>
<linearGradient id="paint27_linear_36_3" x1="157.205" y1="37" x2="32.8068" y2="166.989" gradientUnits="userSpaceOnUse">
<stop stop-color="white"/>
<stop offset="1" stop-color="white" stop-opacity="0"/>
</linearGradient>
<linearGradient id="paint28_linear_36_3" x1="157.205" y1="37" x2="32.8068" y2="166.989" gradientUnits="userSpaceOnUse">
<stop stop-color="white"/>
<stop offset="1" stop-color="white" stop-opacity="0"/>
</linearGradient>
<linearGradient id="paint29_linear_36_3" x1="157.205" y1="37" x2="32.8068" y2="166.989" gradientUnits="userSpaceOnUse">
<stop stop-color="white"/>
<stop offset="1" stop-color="white" stop-opacity="0"/>
</linearGradient>
<linearGradient id="paint30_linear_36_3" x1="157.205" y1="37" x2="32.8068" y2="166.989" gradientUnits="userSpaceOnUse">
<stop stop-color="white"/>
<stop offset="1" stop-color="white" stop-opacity="0"/>
</linearGradient>
<linearGradient id="paint31_linear_36_3" x1="157.205" y1="37" x2="32.8068" y2="166.989" gradientUnits="userSpaceOnUse">
<stop stop-color="white"/>
<stop offset="1" stop-color="white" stop-opacity="0"/>
</linearGradient>
</defs>
</svg>
